<svg xmlns="http://www.w3.org/2000/svg" xmlns:xlink="http://www.w3.org/1999/xlink" width="512" zoomAndPan="magnify" viewBox="0 0 384 383.999986" height="512" preserveAspectRatio="xMidYMid meet" version="1.0"><defs><g/><clipPath id="5d296f01dc"><path d="M 128.71875 70.867188 L 255.433594 70.867188 L 255.433594 199.867188 L 128.71875 199.867188 Z M 128.71875 70.867188 " clip-rule="nonzero"/></clipPath><clipPath id="5661a77c68"><rect x="0" width="138" y="0" height="31"/></clipPath><clipPath id="c9108fa812"><rect x="0" width="136" y="0" height="77"/></clipPath></defs><g clip-path="url(#5d296f01dc)"><path fill="#ff751f" d="M 139.929688 98.960938 L 128.683594 98.960938 L 128.683594 135.300781 C 128.683594 170.597656 157.632812 199.453125 193.246094 199.453125 C 222.824219 199.453125 247.609375 179.730469 255.316406 152.527344 L 233.859375 152.527344 C 227.195312 168.304688 211.363281 179.316406 193.246094 179.316406 C 168.671875 179.316406 148.886719 159.597656 148.886719 135.300781 L 148.886719 98.960938 Z M 216.367188 135.300781 C 216.367188 122.421875 205.949219 112.035156 193.246094 112.035156 C 180.332031 112.035156 169.925781 122.421875 169.925781 135.300781 C 169.925781 147.960938 180.332031 158.347656 193.246094 158.347656 C 205.949219 158.347656 216.367188 147.960938 216.367188 135.300781 Z M 255.316406 117.855469 C 247.609375 90.863281 222.824219 70.929688 193.246094 70.929688 C 180.546875 70.929688 168.878906 74.457031 158.882812 80.691406 L 158.882812 107.269531 C 167.007812 97.296875 179.5 91.0625 193.246094 91.0625 C 211.363281 91.0625 227.195312 102.074219 233.859375 117.855469 Z M 148.886719 70.929688 L 128.683594 70.929688 L 128.683594 91.0625 L 148.886719 91.0625 Z M 148.886719 70.929688 " fill-opacity="1" fill-rule="evenodd"/></g><g transform="matrix(1, 0, 0, 1, 125, 282)"><g clip-path="url(#5661a77c68)"><g fill="#000000" fill-opacity="1"><g transform="translate(1.094792, 24.723241)"><g><path d="M 11.0625 -4.515625 L 5.15625 -4.515625 L 3.90625 0 L 0.03125 0 L 4.984375 -16.1875 C 5.046875 -16.488281 5.203125 -16.726562 5.453125 -16.90625 C 5.703125 -17.09375 5.984375 -17.1875 6.296875 -17.1875 L 9.890625 -17.1875 C 10.597656 -17.1875 11.035156 -16.851562 11.203125 -16.1875 L 16.171875 0 L 12.296875 0 Z M 10.234375 -7.453125 L 8.796875 -12.703125 C 8.597656 -13.535156 8.476562 -14.078125 8.4375 -14.328125 L 7.765625 -14.328125 C 7.734375 -14.160156 7.675781 -13.890625 7.59375 -13.515625 C 7.507812 -13.148438 7.441406 -12.878906 7.390625 -12.703125 L 5.953125 -7.453125 Z M 10.234375 -7.453125 "/></g></g></g><g fill="#000000" fill-opacity="1"><g transform="translate(21.011933, 24.723241)"><g><path d="M 1.75 0 L 1.75 -17.1875 C 3.289062 -17.332031 5.460938 -17.40625 8.265625 -17.40625 C 10.671875 -17.40625 12.316406 -17.015625 13.203125 -16.234375 C 14.097656 -15.453125 14.546875 -13.972656 14.546875 -11.796875 C 14.546875 -9.628906 14.125 -8.148438 13.28125 -7.359375 C 12.445312 -6.566406 10.941406 -6.171875 8.765625 -6.171875 C 7.671875 -6.171875 6.59375 -6.238281 5.53125 -6.375 L 5.53125 0 Z M 5.53125 -9.09375 L 8.1875 -9.09375 C 9.164062 -9.101562 9.832031 -9.289062 10.1875 -9.65625 C 10.550781 -10.03125 10.734375 -10.75 10.734375 -11.8125 C 10.734375 -12.875 10.550781 -13.585938 10.1875 -13.953125 C 9.832031 -14.316406 9.164062 -14.5 8.1875 -14.5 L 5.53125 -14.46875 Z M 5.53125 -9.09375 "/></g></g></g><g fill="#000000" fill-opacity="1"><g transform="translate(40.032863, 24.723241)"><g><path d="M 5.484375 -17.1875 L 5.484375 -4.359375 C 5.484375 -3.910156 5.585938 -3.585938 5.796875 -3.390625 C 6.003906 -3.191406 6.347656 -3.09375 6.828125 -3.09375 L 12.734375 -3.09375 L 12.90625 -0.203125 C 11.226562 -0.015625 8.800781 0.078125 5.625 0.078125 C 4.300781 0.078125 3.3125 -0.253906 2.65625 -0.921875 C 2.007812 -1.585938 1.6875 -2.476562 1.6875 -3.59375 L 1.6875 -17.1875 Z M 5.484375 -17.1875 "/></g></g></g><g fill="#000000" fill-opacity="1"><g transform="translate(57.012442, 24.723241)"><g><path d="M 5.53125 0 L 1.75 0 L 1.75 -17.1875 L 5.53125 -17.1875 Z M 5.53125 0 "/></g></g></g><g fill="#000000" fill-opacity="1"><g transform="translate(68.017323, 24.723241)"><g><path d="M 6.828125 -7.578125 L 5.359375 -7.578125 C 5.472656 -6.910156 5.53125 -6.359375 5.53125 -5.921875 L 5.53125 0 L 1.75 0 L 1.75 -17.1875 L 5.53125 -17.1875 L 5.53125 -12.328125 C 5.53125 -11.597656 5.472656 -10.914062 5.359375 -10.28125 L 6.828125 -10.28125 L 11.1875 -17.1875 L 15.296875 -17.1875 L 10.859375 -10.34375 C 10.578125 -9.84375 10.160156 -9.382812 9.609375 -8.96875 L 9.609375 -8.859375 C 10.210938 -8.453125 10.695312 -7.945312 11.0625 -7.34375 L 15.59375 0 L 11.359375 0 Z M 6.828125 -7.578125 "/></g></g></g><g fill="#000000" fill-opacity="1"><g transform="translate(87.461468, 24.723241)"><g><path d="M 11.0625 -4.515625 L 5.15625 -4.515625 L 3.90625 0 L 0.03125 0 L 4.984375 -16.1875 C 5.046875 -16.488281 5.203125 -16.726562 5.453125 -16.90625 C 5.703125 -17.09375 5.984375 -17.1875 6.296875 -17.1875 L 9.890625 -17.1875 C 10.597656 -17.1875 11.035156 -16.851562 11.203125 -16.1875 L 16.171875 0 L 12.296875 0 Z M 10.234375 -7.453125 L 8.796875 -12.703125 C 8.597656 -13.535156 8.476562 -14.078125 8.4375 -14.328125 L 7.765625 -14.328125 C 7.734375 -14.160156 7.675781 -13.890625 7.59375 -13.515625 C 7.507812 -13.148438 7.441406 -12.878906 7.390625 -12.703125 L 5.953125 -7.453125 Z M 10.234375 -7.453125 "/></g></g></g><g fill="#000000" fill-opacity="1"><g transform="translate(107.378609, 24.723241)"><g><path d="M 8.09375 -6.5 L 4.625 -7.71875 C 3.351562 -8.1875 2.441406 -8.816406 1.890625 -9.609375 C 1.347656 -10.410156 1.078125 -11.457031 1.078125 -12.75 C 1.078125 -14.644531 1.535156 -15.910156 2.453125 -16.546875 C 3.367188 -17.191406 4.992188 -17.515625 7.328125 -17.515625 C 9.515625 -17.515625 11.394531 -17.289062 12.96875 -16.84375 L 12.734375 -14.25 C 11.285156 -14.300781 9.488281 -14.328125 7.34375 -14.328125 C 6.351562 -14.328125 5.691406 -14.238281 5.359375 -14.0625 C 5.023438 -13.882812 4.859375 -13.445312 4.859375 -12.75 C 4.859375 -12.1875 4.984375 -11.78125 5.234375 -11.53125 C 5.484375 -11.28125 5.957031 -11.039062 6.65625 -10.8125 L 9.90625 -9.6875 C 11.238281 -9.21875 12.175781 -8.582031 12.71875 -7.78125 C 13.269531 -6.976562 13.546875 -5.925781 13.546875 -4.625 C 13.546875 -2.707031 13.082031 -1.398438 12.15625 -0.703125 C 11.226562 -0.015625 9.566406 0.328125 7.171875 0.328125 C 5.234375 0.328125 3.265625 0.109375 1.265625 -0.328125 L 1.5 -3.0625 C 5.03125 -2.976562 6.921875 -2.9375 7.171875 -2.9375 C 8.179688 -2.9375 8.859375 -3.046875 9.203125 -3.265625 C 9.546875 -3.484375 9.71875 -3.929688 9.71875 -4.609375 C 9.71875 -5.191406 9.597656 -5.601562 9.359375 -5.84375 C 9.128906 -6.082031 8.707031 -6.300781 8.09375 -6.5 Z M 8.09375 -6.5 "/></g></g></g><g fill="#000000" fill-opacity="1"><g transform="translate(125.60292, 24.723241)"><g><path d="M 5.53125 0 L 1.75 0 L 1.75 -17.1875 L 5.53125 -17.1875 Z M 5.53125 0 "/></g></g></g></g></g><g transform="matrix(1, 0, 0, 1, 124, 206)"><g clip-path="url(#c9108fa812)"><g fill="#000000" fill-opacity="1"><g transform="translate(0.988928, 64.455533)"><g><path d="M 38.46875 0 L 28.390625 0 L 25.125 -13.21875 C 24.707031 -14.59375 24.15625 -15.539062 23.46875 -16.0625 C 22.78125 -16.59375 21.785156 -16.859375 20.484375 -16.859375 L 13.78125 -16.921875 L 13.78125 0 L 4.390625 0 L 4.390625 -43.234375 C 8.273438 -43.609375 13.765625 -43.796875 20.859375 -43.796875 C 26.671875 -43.796875 30.785156 -42.875 33.203125 -41.03125 C 35.628906 -39.195312 36.84375 -35.859375 36.84375 -31.015625 C 36.84375 -27.835938 36.203125 -25.347656 34.921875 -23.546875 C 33.648438 -21.753906 31.535156 -20.671875 28.578125 -20.296875 L 28.578125 -19.984375 C 31.867188 -19.234375 33.914062 -17.0625 34.71875 -13.46875 Z M 13.78125 -24.25 L 20.671875 -24.25 C 23.179688 -24.25 24.894531 -24.675781 25.8125 -25.53125 C 26.726562 -26.382812 27.1875 -28 27.1875 -30.375 C 27.1875 -32.757812 26.738281 -34.367188 25.84375 -35.203125 C 24.945312 -36.046875 23.222656 -36.46875 20.671875 -36.46875 L 13.78125 -36.40625 Z M 13.78125 -24.25 "/></g></g></g><g fill="#000000" fill-opacity="1"><g transform="translate(41.272043, 64.455533)"><g><path d="M 27.8125 -11.34375 L 12.96875 -11.34375 L 9.84375 0 L 0.0625 0 L 12.53125 -40.71875 C 12.695312 -41.476562 13.09375 -42.085938 13.71875 -42.546875 C 14.34375 -43.003906 15.054688 -43.234375 15.859375 -43.234375 L 24.875 -43.234375 C 26.664062 -43.234375 27.769531 -42.394531 28.1875 -40.71875 L 40.65625 0 L 30.953125 0 Z M 25.75 -18.734375 L 22.125 -31.953125 C 21.613281 -34.046875 21.316406 -35.40625 21.234375 -36.03125 L 19.546875 -36.03125 C 19.460938 -35.613281 19.316406 -34.941406 19.109375 -34.015625 C 18.898438 -33.097656 18.734375 -32.410156 18.609375 -31.953125 L 14.96875 -18.734375 Z M 25.75 -18.734375 "/></g></g></g><g fill="#000000" fill-opacity="1"><g transform="translate(81.993699, 64.455533)"><g><path d="M 32.703125 -35.71875 L 17.234375 -35.71875 C 16.015625 -35.71875 15.144531 -35.460938 14.625 -34.953125 C 14.101562 -34.453125 13.84375 -33.640625 13.84375 -32.515625 L 13.84375 -25.125 L 30.390625 -25.125 L 30.390625 -18.171875 L 13.84375 -18.171875 L 13.84375 0 L 4.265625 0 L 4.265625 -34.453125 C 4.265625 -37.210938 5.128906 -39.394531 6.859375 -41 C 8.597656 -42.613281 10.90625 -43.421875 13.78125 -43.421875 C 22.96875 -43.421875 29.441406 -43.191406 33.203125 -42.734375 Z M 32.703125 -35.71875 "/></g></g></g><g fill="#000000" fill-opacity="1"><g transform="translate(116.701071, 64.455533)"><g><path d="M 13.90625 0 L 4.390625 0 L 4.390625 -43.234375 L 13.90625 -43.234375 Z M 13.90625 0 "/></g></g></g></g></g></svg>